<svg width="30" height="26" viewBox="0 0 30 26" fill="none" xmlns="http://www.w3.org/2000/svg">
<path fill-rule="evenodd" clip-rule="evenodd" d="M1.05641 0.091192C-0.236586 0.469219 -0.38135 2.20082 0.836938 2.7171C1.08112 2.82065 1.32196 2.84187 2.26671 2.84309C3.28623 2.84445 3.40644 2.85679 3.43768 2.96325C3.4568 3.02854 4.44486 6.42312 5.63328 10.5068C7.84094 18.0927 7.88229 18.2154 8.32603 18.4991C8.7596 18.7763 8.84724 18.7794 16.2824 18.7778C24.4068 18.7762 23.83 18.8126 24.3415 18.269C24.7944 17.7877 29.9385 8.01755 29.9874 7.54581C30.1357 6.11562 28.9544 4.67884 27.4048 4.4047C27.1572 4.36089 23.4425 4.33635 17.0506 4.33635H7.08252L6.62701 2.69202C5.86918 -0.0434058 5.91859 -0.00712861 2.95572 0.00121171C1.87921 0.00426305 1.25219 0.0339624 1.05641 0.091192ZM26.9658 7.21837C26.9658 7.23715 25.9193 9.20526 24.6402 11.592L22.3145 15.9314H16.4073H10.5001L9.20123 11.6426C8.48685 9.28372 7.88774 7.31567 7.86986 7.26902C7.84392 7.20148 9.78123 7.18426 17.4016 7.18426C22.6619 7.18426 26.9658 7.19959 26.9658 7.21837ZM8.08047 21.7667C6.26808 22.1073 5.59978 24.1468 6.90229 25.3621C8.34274 26.7061 10.7838 25.7645 10.7838 23.8649C10.7838 22.5351 9.4598 21.5075 8.08047 21.7667ZM23.5664 21.7651C21.4327 22.1709 21.0589 24.8746 23.0126 25.772C24.5466 26.4766 26.2745 25.4664 26.2745 23.8649C26.2745 22.5112 24.9684 21.4985 23.5664 21.7651Z" fill="#3A6E70"/>
</svg>
