<svg width="40" height="35" viewBox="0 0 40 35" fill="none" xmlns="http://www.w3.org/2000/svg">
<path fill-rule="evenodd" clip-rule="evenodd" d="M1.40855 0.122758C-0.315448 0.63164 -0.508467 2.96264 1.11592 3.65764C1.44149 3.79702 1.76261 3.82559 3.02227 3.82724C4.38165 3.82906 4.54191 3.84568 4.58358 3.98898C4.60906 4.07689 5.92648 8.64651 7.51104 14.1438C10.4546 24.3555 10.5097 24.5207 11.1014 24.9026C11.6795 25.2758 11.7963 25.28 21.7099 25.2779C32.5424 25.2756 31.7733 25.3247 32.4554 24.5928C33.0593 23.9449 39.918 10.7929 39.9832 10.1578C40.1809 8.23256 38.6058 6.29844 36.5397 5.9294C36.2096 5.87043 31.2567 5.83739 22.7342 5.83739H9.44336L8.83601 3.62387C7.82557 -0.0584309 7.89146 -0.0095962 3.94096 0.00163115C2.50562 0.00573872 1.66959 0.0457187 1.40855 0.122758ZM35.9544 9.71703C35.9544 9.74232 34.559 12.3917 32.8535 15.6045L29.7527 21.4461H21.8764H14.0001L12.2683 15.6727C11.3158 12.4973 10.517 9.84802 10.4931 9.78522C10.4586 9.69431 13.0416 9.67112 23.2021 9.67112C30.2159 9.67112 35.9544 9.69175 35.9544 9.71703ZM10.774 29.3013C8.35744 29.7598 7.46637 32.5053 9.20306 34.1413C11.1237 35.9505 14.3783 34.683 14.3783 32.1258C14.3783 30.3357 12.6131 28.9524 10.774 29.3013ZM31.4219 29.2992C28.5769 29.8454 28.0785 33.4851 30.6834 34.6931C32.7287 35.6415 35.0327 34.2817 35.0327 32.1258C35.0327 30.3035 33.2912 28.9403 31.4219 29.2992Z" fill="#fff"/>
<rect x="21" y="12" width="2" height="8" rx="1" fill="#fff"/>
<rect x="26" y="15" width="2" height="8" rx="1" transform="rotate(90 26 15)" fill="#fff"/>
</svg>
