<svg width="40" height="40" viewBox="0 0 40 40" fill="none" xmlns="http://www.w3.org/2000/svg">
<g clip-path="url(#clip0_705_2282)">
<path d="M32 20.1638C31.7987 20.6013 31.4537 20.7263 30.9812 20.7263C27.4725 20.7113 23.9637 20.7181 20.455 20.7181H20.1512V19.2369H20.4319C23.9481 19.2369 27.465 19.2438 30.9812 19.2288C31.4537 19.2288 31.7987 19.35 32 19.7913V20.1638Z" fill="#3A6E70"/>
<path d="M32 11.6494C31.8125 12.0869 31.4818 12.2281 31.015 12.2188C29.8712 12.1956 28.7268 12.2113 27.5831 12.2113H27.3037V10.7275H27.5668C28.6875 10.7275 29.8087 10.7438 30.9287 10.72C31.4081 10.71 31.7825 10.8194 32 11.275V11.6494Z" fill="#3A6E70"/>
<path d="M32 28.6788C31.7868 29.1213 31.4256 29.2413 30.9525 29.2331C29.8243 29.2106 28.6956 29.2256 27.5668 29.2256H27.3037V27.7425H27.5593C28.7037 27.7425 29.8481 27.7588 30.9912 27.7344C31.465 27.7244 31.8087 27.8563 32 28.3044V28.6788Z" fill="#3A6E70"/>
<path d="M19.8956 10.7275V12.1994C19.8275 12.2031 19.7512 12.2106 19.6756 12.2106C16.0823 12.2106 12.4896 12.2106 8.89749 12.2106C8.40749 12.2106 8.07936 11.9387 8.05624 11.5231C8.04354 11.3262 8.10933 11.1323 8.23922 10.9838C8.36911 10.8353 8.55253 10.7443 8.74936 10.7306C8.81874 10.7237 8.88936 10.7269 8.95999 10.7269H19.8975L19.8956 10.7275Z" fill="#3A6E70"/>
<path d="M19.8956 27.7425V29.2156C19.8331 29.2156 19.7493 29.2262 19.6681 29.2262C16.0848 29.2262 12.4998 29.2262 8.91308 29.2262C8.30308 29.2262 7.91871 28.7644 8.09433 28.2481C8.13885 28.1061 8.22665 27.9816 8.34543 27.8919C8.46422 27.8023 8.60806 27.752 8.75683 27.7481C8.84246 27.7437 8.92808 27.745 9.01371 27.745H19.8956V27.7425Z" fill="#3A6E70"/>
<path d="M18.7674 19.9694C18.7672 20.4276 18.6311 20.8755 18.3764 21.2564C18.1216 21.6374 17.7597 21.9342 17.3362 22.1095C16.9128 22.2847 16.447 22.3305 15.9975 22.241C15.5481 22.1516 15.1353 21.9309 14.8112 21.6069C14.4872 21.2828 14.2665 20.87 14.177 20.4206C14.0876 19.9711 14.1334 19.5053 14.3086 19.0818C14.4839 18.6584 14.7807 18.2965 15.1616 18.0417C15.5426 17.787 15.9904 17.6509 16.4487 17.6506C17.063 17.6529 17.6514 17.898 18.0858 18.3323C18.5201 18.7667 18.7651 19.3551 18.7674 19.9694Z" fill="#3A6E70"/>
<path d="M21.2787 28.4794C21.2798 28.0211 21.4168 27.5733 21.6724 27.1929C21.9279 26.8124 22.2905 26.5162 22.7144 26.3418C23.1382 26.1674 23.6043 26.1226 24.0536 26.2131C24.5029 26.3036 24.9153 26.5252 25.2387 26.8501C25.562 27.1749 25.7818 27.5883 25.8702 28.038C25.9586 28.4877 25.9117 28.9536 25.7353 29.3766C25.559 29.7997 25.2612 30.161 24.8795 30.4148C24.4979 30.6686 24.0495 30.8035 23.5912 30.8025C23.2866 30.8025 22.9851 30.7423 22.7038 30.6255C22.4225 30.5086 22.1671 30.3373 21.9523 30.1214C21.7374 29.9056 21.5673 29.6494 21.4517 29.3676C21.3361 29.0858 21.2773 28.784 21.2787 28.4794Z" fill="#3A6E70"/>
<path d="M21.2787 11.4788C21.2777 11.0201 21.4128 10.5715 21.6669 10.1897C21.921 9.80793 22.2827 9.51012 22.7061 9.33398C23.1296 9.15784 23.5958 9.11131 24.0457 9.20026C24.4956 9.28922 24.909 9.50967 25.2336 9.8337C25.5581 10.1577 25.7793 10.5708 25.8689 11.0206C25.9586 11.4703 25.9128 11.9366 25.7374 12.3603C25.5619 12.7841 25.2647 13.1462 24.8833 13.4009C24.502 13.6557 24.0536 13.7915 23.5949 13.7913C22.9818 13.7894 22.3943 13.5453 21.9604 13.1122C21.5265 12.679 21.2815 12.0919 21.2787 11.4788Z" fill="#3A6E70"/>
<path d="M12.7443 20.7156H8.87556C8.39244 20.7156 8.05869 20.4144 8.05556 19.9813C8.05244 19.5481 8.38369 19.2375 8.86431 19.2369C10.156 19.2369 11.4493 19.2369 12.7443 19.2369V20.7156Z" fill="#3A6E70"/>
</g>
<defs>
<clipPath id="clip0_705_2282">
<rect width="24" height="24" fill="white" transform="translate(8 8)"/>
</clipPath>
</defs>
</svg>
